<mxfile host="65bd71144e">
    <diagram name="Page-1" id="994rLNNzb_YoSAEU7WUG">
        <mxGraphModel dx="1060" dy="585" grid="1" gridSize="10" guides="1" tooltips="1" connect="1" arrows="1" fold="1" page="1" pageScale="1" pageWidth="827" pageHeight="1169" background="#FFFFFF" math="0" shadow="0">
            <root>
                <mxCell id="0"/>
                <mxCell id="1" parent="0"/>
                <mxCell id="9ExzE0s_WKGISwewNnNx-31" value="" style="group" parent="1" vertex="1" connectable="0">
                    <mxGeometry x="168" y="260" width="100" height="120" as="geometry"/>
                </mxCell>
                <mxCell id="9ExzE0s_WKGISwewNnNx-16" value="" style="rounded=0;whiteSpace=wrap;html=1;fillColor=none;" parent="9ExzE0s_WKGISwewNnNx-31" vertex="1">
                    <mxGeometry width="100" height="100" as="geometry"/>
                </mxCell>
                <mxCell id="9ExzE0s_WKGISwewNnNx-4" value="" style="shape=image;verticalLabelPosition=bottom;labelBackgroundColor=default;verticalAlign=top;aspect=fixed;imageAspect=0;editableCssRules=.*;image=data:image/svg+xml,PHN2ZyB4bWxucz0iaHR0cDovL3d3dy53My5vcmcvMjAwMC9zdmciIHZpZXdCb3g9IjAgMy4zOTAwMDAxMDQ5MDQxNzUgMjQgMTcuMjIwMDAxMjIwNzAzMTI1IiByb2xlPSJpbWciIHdpZHRoPSIyNCIgaGVpZ2h0PSIxNy4yMjAwMDEyMjA3MDMxMjUiPjx0aXRsZT5CZXR0ZXIgQXV0aDwvdGl0bGU+PHBhdGggZD0iTTAgMy4zOXYxNy4yMmg1Ljc4M1YxNS4wNmg2LjQzNFY4LjkzOUg1Ljc4M1YzLjM5Wk0xMi4yMTcgOC45NGg1LjYzOHY2LjEyMmgtNS42Mzh2NS41NDhIMjRWMy4zOTFIMTIuMjE3WiIvPjwvc3ZnPg==;imageBackground=none;" parent="9ExzE0s_WKGISwewNnNx-31" vertex="1">
                    <mxGeometry x="14.70999999999998" y="40" width="70.59" height="50" as="geometry"/>
                </mxCell>
                <mxCell id="9ExzE0s_WKGISwewNnNx-20" value="Auth" style="text;html=1;whiteSpace=wrap;strokeColor=none;fillColor=none;align=left;verticalAlign=middle;rounded=0;spacingLeft=0;" parent="9ExzE0s_WKGISwewNnNx-31" vertex="1">
                    <mxGeometry y="100" width="100" height="20" as="geometry"/>
                </mxCell>
                <mxCell id="9ExzE0s_WKGISwewNnNx-30" value="" style="shape=image;verticalLabelPosition=bottom;labelBackgroundColor=default;verticalAlign=top;aspect=fixed;imageAspect=0;image=data:image/svg+xml,PHN2ZyB4bWxucz0iaHR0cDovL3d3dy53My5vcmcvMjAwMC9zdmciIHdpZHRoPSIyNCIgaGVpZ2h0PSIyNCIgdmlld0JveD0iMCAwIDI0IDI0IiBmaWxsPSJub25lIiBzdHJva2U9ImN1cnJlbnRDb2xvciIgc3Ryb2tlLXdpZHRoPSIyIiBzdHJva2UtbGluZWNhcD0icm91bmQiIHN0cm9rZS1saW5lam9pbj0icm91bmQiIGNsYXNzPSJsdWNpZGUgbHVjaWRlLXNlcnZlci1pY29uIGx1Y2lkZS1zZXJ2ZXIiPjxyZWN0IHdpZHRoPSIyMCIgaGVpZ2h0PSI4IiB4PSIyIiB5PSIyIiByeD0iMiIgcnk9IjIiLz48cmVjdCB3aWR0aD0iMjAiIGhlaWdodD0iOCIgeD0iMiIgeT0iMTQiIHJ4PSIyIiByeT0iMiIvPjxsaW5lIHgxPSI2IiB4Mj0iNi4wMSIgeTE9IjYiIHkyPSI2Ii8+PGxpbmUgeDE9IjYiIHgyPSI2LjAxIiB5MT0iMTgiIHkyPSIxOCIvPjwvc3ZnPg==;" parent="9ExzE0s_WKGISwewNnNx-31" vertex="1">
                    <mxGeometry x="10" y="10" width="24" height="24" as="geometry"/>
                </mxCell>
                <mxCell id="9ExzE0s_WKGISwewNnNx-32" value="" style="group" parent="1" vertex="1" connectable="0">
                    <mxGeometry x="268" y="110" width="100.00999999999999" height="120" as="geometry"/>
                </mxCell>
                <mxCell id="9ExzE0s_WKGISwewNnNx-21" value="" style="rounded=0;whiteSpace=wrap;html=1;fillColor=none;" parent="9ExzE0s_WKGISwewNnNx-32" vertex="1">
                    <mxGeometry width="100" height="100" as="geometry"/>
                </mxCell>
                <mxCell id="9ExzE0s_WKGISwewNnNx-24" value="PostgreSQL" style="text;html=1;whiteSpace=wrap;strokeColor=none;fillColor=none;align=left;verticalAlign=middle;rounded=0;spacingLeft=0;" parent="9ExzE0s_WKGISwewNnNx-32" vertex="1">
                    <mxGeometry x="0.009999999999990905" y="100" width="100" height="20" as="geometry"/>
                </mxCell>
                <mxCell id="9ExzE0s_WKGISwewNnNx-29" value="" style="shape=image;verticalLabelPosition=bottom;labelBackgroundColor=default;verticalAlign=top;aspect=fixed;imageAspect=0;image=data:image/svg+xml,PHN2ZyB4bWxucz0iaHR0cDovL3d3dy53My5vcmcvMjAwMC9zdmciIHdpZHRoPSIyNCIgaGVpZ2h0PSIyNCIgdmlld0JveD0iMCAwIDI0IDI0IiBmaWxsPSJub25lIiBzdHJva2U9ImN1cnJlbnRDb2xvciIgc3Ryb2tlLXdpZHRoPSIyIiBzdHJva2UtbGluZWNhcD0icm91bmQiIHN0cm9rZS1saW5lam9pbj0icm91bmQiIGNsYXNzPSJsdWNpZGUgbHVjaWRlLWRhdGFiYXNlLWljb24gbHVjaWRlLWRhdGFiYXNlIj48ZWxsaXBzZSBjeD0iMTIiIGN5PSI1IiByeD0iOSIgcnk9IjMiLz48cGF0aCBkPSJNMyA1VjE5QTkgMyAwIDAgMCAyMSAxOVY1Ii8+PHBhdGggZD0iTTMgMTJBOSAzIDAgMCAwIDIxIDEyIi8+PC9zdmc+;" parent="9ExzE0s_WKGISwewNnNx-32" vertex="1">
                    <mxGeometry x="5.169999999999959" y="10" width="24" height="24" as="geometry"/>
                </mxCell>
                <mxCell id="9ExzE0s_WKGISwewNnNx-9" value="" style="shape=image;verticalLabelPosition=bottom;labelBackgroundColor=default;verticalAlign=top;aspect=fixed;imageAspect=0;editableCssRules=.*;image=data:image/svg+xml,PHN2ZyB4bWxucz0iaHR0cDovL3d3dy53My5vcmcvMjAwMC9zdmciIHZpZXdCb3g9IjIuMDYxOTg3MTYxNjM2MzUyNSAwLjAwMDAxMzE0MzUyMjY2NDkwNDU5NCAxOS44NzUwODAxMDg2NDI1NzggMjMuOTk5OTg0NzQxMjEwOTM4IiByb2xlPSJpbWciIHdpZHRoPSIxOS44NzUwODAxMDg2NDI1NzgiIGhlaWdodD0iMjMuOTk5OTg0NzQxMjEwOTM4Ij48dGl0bGU+UHJpc21hPC90aXRsZT48cGF0aCBkPSJNMjEuODA2OCAxOC4yODQ4TDEzLjU1MjguNzU2NWMtLjIwNy0uNDM4Mi0uNjM5LS43MjczLTEuMTI4Ni0uNzU0MS0uNTAyMy0uMDI5My0uOTUyMy4yMTMtMS4yMDYyLjYyNTNMMi4yNjYgMTUuMTI3MWMtLjI3NzMuNDUxOC0uMjcxOCAxLjAwOTEuMDE1OCAxLjQ1NTVsNC4zNzU5IDYuNzc4NmMuMjYwOC40MDQ2LjcxMjcuNjM4OCAxLjE4MjMuNjM4OC4xMzMyIDAgLjI2Ny0uMDE4OC4zOTg3LS4wNTc3bDEyLjcwMTktMy43NTY4Yy4zODkxLS4xMTUxLjcwNzItLjM5MDQuODczNy0uNzU1M3MuMTYzMy0uNzgyOC0uMDA3NS0xLjE0NTR6bS0xLjg0ODEuNzUxOUw5LjE4MTQgMjIuMjI0MmMtLjMyOTIuMDk3NS0uNjQ0OC0uMTg3My0uNTc1Ni0uNTE5NGwzLjg1MDEtMTguNDM4NmMuMDcyLS4zNDQ4LjU0ODYtLjM5OTYuNjk5LS4wODAzbDcuMTI4OCAxNS4xMzhjLjEzNDQuMjg1Ni0uMDE5LjYyMjQtLjMyNS43MTI4eiIgZmlsbD0iIzJEMzc0OCIvPjwvc3ZnPg==;" parent="9ExzE0s_WKGISwewNnNx-32" vertex="1">
                    <mxGeometry x="29.170000000000073" y="40" width="42" height="50" as="geometry"/>
                </mxCell>
                <mxCell id="9ExzE0s_WKGISwewNnNx-33" value="" style="group" parent="1" vertex="1" connectable="0">
                    <mxGeometry x="368.01" y="260" width="100" height="120" as="geometry"/>
                </mxCell>
                <mxCell id="9ExzE0s_WKGISwewNnNx-34" value="" style="rounded=0;whiteSpace=wrap;html=1;fillColor=none;" parent="9ExzE0s_WKGISwewNnNx-33" vertex="1">
                    <mxGeometry width="100" height="100" as="geometry"/>
                </mxCell>
                <mxCell id="9ExzE0s_WKGISwewNnNx-36" value="API" style="text;html=1;whiteSpace=wrap;strokeColor=none;fillColor=none;align=left;verticalAlign=middle;rounded=0;spacingLeft=0;" parent="9ExzE0s_WKGISwewNnNx-33" vertex="1">
                    <mxGeometry y="100" width="100" height="20" as="geometry"/>
                </mxCell>
                <mxCell id="9ExzE0s_WKGISwewNnNx-37" value="" style="shape=image;verticalLabelPosition=bottom;labelBackgroundColor=default;verticalAlign=top;aspect=fixed;imageAspect=0;image=data:image/svg+xml,PHN2ZyB4bWxucz0iaHR0cDovL3d3dy53My5vcmcvMjAwMC9zdmciIHdpZHRoPSIyNCIgaGVpZ2h0PSIyNCIgdmlld0JveD0iMCAwIDI0IDI0IiBmaWxsPSJub25lIiBzdHJva2U9ImN1cnJlbnRDb2xvciIgc3Ryb2tlLXdpZHRoPSIyIiBzdHJva2UtbGluZWNhcD0icm91bmQiIHN0cm9rZS1saW5lam9pbj0icm91bmQiIGNsYXNzPSJsdWNpZGUgbHVjaWRlLXNlcnZlci1pY29uIGx1Y2lkZS1zZXJ2ZXIiPjxyZWN0IHdpZHRoPSIyMCIgaGVpZ2h0PSI4IiB4PSIyIiB5PSIyIiByeD0iMiIgcnk9IjIiLz48cmVjdCB3aWR0aD0iMjAiIGhlaWdodD0iOCIgeD0iMiIgeT0iMTQiIHJ4PSIyIiByeT0iMiIvPjxsaW5lIHgxPSI2IiB4Mj0iNi4wMSIgeTE9IjYiIHkyPSI2Ii8+PGxpbmUgeDE9IjYiIHgyPSI2LjAxIiB5MT0iMTgiIHkyPSIxOCIvPjwvc3ZnPg==;" parent="9ExzE0s_WKGISwewNnNx-33" vertex="1">
                    <mxGeometry x="10" y="10" width="24" height="24" as="geometry"/>
                </mxCell>
                <mxCell id="9ExzE0s_WKGISwewNnNx-40" value="" style="shape=image;verticalLabelPosition=bottom;labelBackgroundColor=default;verticalAlign=top;aspect=fixed;imageAspect=0;editableCssRules=.*;image=data:image/svg+xml,PHN2ZyB4bWxucz0iaHR0cDovL3d3dy53My5vcmcvMjAwMC9zdmciIHZpZXdCb3g9IjIuNjg5MTU2NzcwNzA2MTc2OCAwLjAwMDEyMzE1MzUxMzQxMzg1Mzk0IDE4LjYxOTI1MzE1ODU2OTMzNiAyMy45OTk4OTMxODg0NzY1NjIiIHJvbGU9ImltZyIgd2lkdGg9IjE4LjYxOTI1MzE1ODU2OTMzNiIgaGVpZ2h0PSIyMy45OTk4OTMxODg0NzY1NjIiPjx0aXRsZT5Ib25vPC90aXRsZT48cGF0aCBkPSJNMTIuNDQ1LjAwMmE0NS41MjkgNDUuNTI5IDAgMCAwLTUuMjUyIDguMTQ2IDguNTk1IDguNTk1IDAgMCAxLS41NTUtLjUzIDI3Ljc5NiAyNy43OTYgMCAwIDAtMS4yMDUtMS41NDIgOC43NjIgOC43NjIgMCAwIDAtMS4yNTEgMi4xMiAyMC43NDMgMjAuNzQzIDAgMCAwLTEuNDQ4IDUuODggOC44NjcgOC44NjcgMCAwIDAgLjMzOCAzLjQ2OGMxLjMxMiAzLjQ4IDMuNzk0IDUuNTkzIDcuNDQ1IDYuMzM3IDMuMDU1LjQzOCA1Ljc1NS0uMzMzIDguMDk3LTIuMzEyIDIuNjc3LTIuNTkgMy4zNTktNS42MzQgMi4wNDctOS4xMzJhMzMuMjg3IDMzLjI4NyAwIDAgMC0yLjk4OC01LjU5QTkxLjM0IDkxLjM0IDAgMCAwIDEyLjYxNS4wNTNhLjIxNi4yMTYgMCAwIDAtLjE3LS4wNTFabS0uMzM2IDMuOTA2YTUwLjkzIDUwLjkzIDAgMCAxIDQuNzk0IDYuNTUyYy40NDguNzY3LjgxNyAxLjU3IDEuMTA4IDIuNDEuNjA2IDIuMzg2LS4wNDQgNC4zNTQtMS45NTEgNS45MDQtMS44NDUgMS4yOTgtMy44NyAxLjY4My02LjA3MiAxLjE1Ni0yLjM3Ni0uNzM3LTMuNzUtMi4zMzUtNC4xMjEtNC43OTRhNS4xMDcgNS4xMDcgMCAwIDEgLjI0Mi0yLjI2NmMuMzU4LS45MDguNzktMS43NzQgMS4zLTIuNjAxbDEuNDQ2LTIuMTIxYTM5Ny4zMyAzOTcuMzMgMCAwIDAgMy4yNTQtNC4yNFoiIGZpbGw9IiNFMzYwMDIiLz48L3N2Zz4=;fontColor=#000000;imageBackground=default;" parent="9ExzE0s_WKGISwewNnNx-33" vertex="1">
                    <mxGeometry x="30.210000000000036" y="40" width="40" height="50" as="geometry"/>
                </mxCell>
                <mxCell id="9ExzE0s_WKGISwewNnNx-42" value="" style="group" parent="1" vertex="1" connectable="0">
                    <mxGeometry x="268" y="570" width="100" height="120" as="geometry"/>
                </mxCell>
                <mxCell id="9ExzE0s_WKGISwewNnNx-43" value="" style="rounded=0;whiteSpace=wrap;html=1;fillColor=none;" parent="9ExzE0s_WKGISwewNnNx-42" vertex="1">
                    <mxGeometry width="100" height="100" as="geometry"/>
                </mxCell>
                <mxCell id="9ExzE0s_WKGISwewNnNx-44" value="Web App" style="text;html=1;whiteSpace=wrap;strokeColor=none;fillColor=none;align=left;verticalAlign=middle;rounded=0;spacingLeft=0;" parent="9ExzE0s_WKGISwewNnNx-42" vertex="1">
                    <mxGeometry y="100" width="100" height="20" as="geometry"/>
                </mxCell>
                <mxCell id="9ExzE0s_WKGISwewNnNx-41" value="" style="shape=image;verticalLabelPosition=bottom;labelBackgroundColor=default;verticalAlign=top;aspect=fixed;imageAspect=0;image=data:image/svg+xml,PHN2ZyB4bWxucz0iaHR0cDovL3d3dy53My5vcmcvMjAwMC9zdmciIHdpZHRoPSIyNCIgaGVpZ2h0PSIyNCIgdmlld0JveD0iMCAwIDI0IDI0IiBmaWxsPSJub25lIiBzdHJva2U9ImN1cnJlbnRDb2xvciIgc3Ryb2tlLXdpZHRoPSIyIiBzdHJva2UtbGluZWNhcD0icm91bmQiIHN0cm9rZS1saW5lam9pbj0icm91bmQiIGNsYXNzPSJsdWNpZGUgbHVjaWRlLWFwcC13aW5kb3ctaWNvbiBsdWNpZGUtYXBwLXdpbmRvdyI+PHJlY3QgeD0iMiIgeT0iNCIgd2lkdGg9IjIwIiBoZWlnaHQ9IjE2IiByeD0iMiIvPjxwYXRoIGQ9Ik0xMCA0djQiLz48cGF0aCBkPSJNMiA4aDIwIi8+PHBhdGggZD0iTTYgNHY0Ii8+PC9zdmc+;" parent="9ExzE0s_WKGISwewNnNx-42" vertex="1">
                    <mxGeometry x="6.21" y="10" width="24" height="24" as="geometry"/>
                </mxCell>
                <mxCell id="9ExzE0s_WKGISwewNnNx-47" value="" style="shape=image;verticalLabelPosition=bottom;labelBackgroundColor=default;verticalAlign=top;aspect=fixed;imageAspect=0;editableCssRules=.*;image=data:image/svg+xml,PHN2ZyB4bWxucz0iaHR0cDovL3d3dy53My5vcmcvMjAwMC9zdmciIHZpZXdCb3g9IjAgMCAyNCAyNCIgcm9sZT0iaW1nIiB3aWR0aD0iMjQiIGhlaWdodD0iMjQiPjx0aXRsZT5OZXh0LmpzPC90aXRsZT48cGF0aCBkPSJNMTguNjY1IDIxLjk3OEMxNi43NTggMjMuMjU1IDE0LjQ2NSAyNCAxMiAyNCA1LjM3NyAyNCAwIDE4LjYyMyAwIDEyUzUuMzc3IDAgMTIgMHMxMiA1LjM3NyAxMiAxMmMwIDMuNTgzLTEuNTc0IDYuODAxLTQuMDY3IDkuMDAxTDkuMjE5IDcuMkg3LjJ2OS41OTZoMS42MTVWOS4yNTFsOS44NSAxMi43MjdabS0zLjMzMi04LjUzMyAxLjYgMi4wNjFWNy4yaC0xLjZ2Ni4yNDVaIi8+PC9zdmc+;" parent="9ExzE0s_WKGISwewNnNx-42" vertex="1">
                    <mxGeometry x="25" y="40" width="50" height="50" as="geometry"/>
                </mxCell>
                <mxCell id="9ExzE0s_WKGISwewNnNx-48" value="" style="group" parent="1" vertex="1" connectable="0">
                    <mxGeometry x="368" y="410" width="100" height="120" as="geometry"/>
                </mxCell>
                <mxCell id="9ExzE0s_WKGISwewNnNx-49" value="" style="rounded=0;whiteSpace=wrap;html=1;fillColor=none;" parent="9ExzE0s_WKGISwewNnNx-48" vertex="1">
                    <mxGeometry width="100" height="100" as="geometry"/>
                </mxCell>
                <mxCell id="9ExzE0s_WKGISwewNnNx-50" value="API Proxy" style="text;html=1;whiteSpace=wrap;strokeColor=none;fillColor=none;align=left;verticalAlign=middle;rounded=0;spacingLeft=0;" parent="9ExzE0s_WKGISwewNnNx-48" vertex="1">
                    <mxGeometry y="100" width="100" height="20" as="geometry"/>
                </mxCell>
                <mxCell id="9ExzE0s_WKGISwewNnNx-52" value="" style="shape=image;verticalLabelPosition=bottom;labelBackgroundColor=default;verticalAlign=top;aspect=fixed;imageAspect=0;editableCssRules=.*;image=data:image/svg+xml,PHN2ZyB4bWxucz0iaHR0cDovL3d3dy53My5vcmcvMjAwMC9zdmciIHZpZXdCb3g9IjIuNjg5MTU2NzcwNzA2MTc2OCAwLjAwMDEyMzE1MzUxMzQxMzg1Mzk0IDE4LjYxOTI1MzE1ODU2OTMzNiAyMy45OTk4OTMxODg0NzY1NjIiIHJvbGU9ImltZyIgd2lkdGg9IjE4LjYxOTI1MzE1ODU2OTMzNiIgaGVpZ2h0PSIyMy45OTk4OTMxODg0NzY1NjIiPjx0aXRsZT5Ib25vPC90aXRsZT48cGF0aCBkPSJNMTIuNDQ1LjAwMmE0NS41MjkgNDUuNTI5IDAgMCAwLTUuMjUyIDguMTQ2IDguNTk1IDguNTk1IDAgMCAxLS41NTUtLjUzIDI3Ljc5NiAyNy43OTYgMCAwIDAtMS4yMDUtMS41NDIgOC43NjIgOC43NjIgMCAwIDAtMS4yNTEgMi4xMiAyMC43NDMgMjAuNzQzIDAgMCAwLTEuNDQ4IDUuODggOC44NjcgOC44NjcgMCAwIDAgLjMzOCAzLjQ2OGMxLjMxMiAzLjQ4IDMuNzk0IDUuNTkzIDcuNDQ1IDYuMzM3IDMuMDU1LjQzOCA1Ljc1NS0uMzMzIDguMDk3LTIuMzEyIDIuNjc3LTIuNTkgMy4zNTktNS42MzQgMi4wNDctOS4xMzJhMzMuMjg3IDMzLjI4NyAwIDAgMC0yLjk4OC01LjU5QTkxLjM0IDkxLjM0IDAgMCAwIDEyLjYxNS4wNTNhLjIxNi4yMTYgMCAwIDAtLjE3LS4wNTFabS0uMzM2IDMuOTA2YTUwLjkzIDUwLjkzIDAgMCAxIDQuNzk0IDYuNTUyYy40NDguNzY3LjgxNyAxLjU3IDEuMTA4IDIuNDEuNjA2IDIuMzg2LS4wNDQgNC4zNTQtMS45NTEgNS45MDQtMS44NDUgMS4yOTgtMy44NyAxLjY4My02LjA3MiAxLjE1Ni0yLjM3Ni0uNzM3LTMuNzUtMi4zMzUtNC4xMjEtNC43OTRhNS4xMDcgNS4xMDcgMCAwIDEgLjI0Mi0yLjI2NmMuMzU4LS45MDguNzktMS43NzQgMS4zLTIuNjAxbDEuNDQ2LTIuMTIxYTM5Ny4zMyAzOTcuMzMgMCAwIDAgMy4yNTQtNC4yNFoiIGZpbGw9IiNFMzYwMDIiLz48L3N2Zz4=;" parent="9ExzE0s_WKGISwewNnNx-48" vertex="1">
                    <mxGeometry x="30.210000000000036" y="40" width="40" height="50" as="geometry"/>
                </mxCell>
                <mxCell id="9ExzE0s_WKGISwewNnNx-53" value="" style="shape=image;verticalLabelPosition=bottom;labelBackgroundColor=default;verticalAlign=top;aspect=fixed;imageAspect=0;image=data:image/svg+xml,PHN2ZyB4bWxucz0iaHR0cDovL3d3dy53My5vcmcvMjAwMC9zdmciIHdpZHRoPSIyNCIgaGVpZ2h0PSIyNCIgdmlld0JveD0iMCAwIDI0IDI0IiBmaWxsPSJub25lIiBzdHJva2U9ImN1cnJlbnRDb2xvciIgc3Ryb2tlLXdpZHRoPSIyIiBzdHJva2UtbGluZWNhcD0icm91bmQiIHN0cm9rZS1saW5lam9pbj0icm91bmQiIGNsYXNzPSJsdWNpZGUgbHVjaWRlLXdheXBvaW50cy1pY29uIGx1Y2lkZS13YXlwb2ludHMiPjxjaXJjbGUgY3g9IjEyIiBjeT0iNC41IiByPSIyLjUiLz48cGF0aCBkPSJtMTAuMiA2LjMtMy45IDMuOSIvPjxjaXJjbGUgY3g9IjQuNSIgY3k9IjEyIiByPSIyLjUiLz48cGF0aCBkPSJNNyAxMmgxMCIvPjxjaXJjbGUgY3g9IjE5LjUiIGN5PSIxMiIgcj0iMi41Ii8+PHBhdGggZD0ibTEzLjggMTcuNyAzLjktMy45Ii8+PGNpcmNsZSBjeD0iMTIiIGN5PSIxOS41IiByPSIyLjUiLz48L3N2Zz4=;" parent="9ExzE0s_WKGISwewNnNx-48" vertex="1">
                    <mxGeometry x="6.210000000000036" y="10" width="24" height="24" as="geometry"/>
                </mxCell>
                <mxCell id="9ExzE0s_WKGISwewNnNx-54" value="" style="group" parent="1" vertex="1" connectable="0">
                    <mxGeometry x="168" y="410" width="100" height="120" as="geometry"/>
                </mxCell>
                <mxCell id="9ExzE0s_WKGISwewNnNx-55" value="" style="rounded=0;whiteSpace=wrap;html=1;fillColor=none;" parent="9ExzE0s_WKGISwewNnNx-54" vertex="1">
                    <mxGeometry width="100" height="100" as="geometry"/>
                </mxCell>
                <mxCell id="9ExzE0s_WKGISwewNnNx-56" value="Auth Proxy" style="text;html=1;whiteSpace=wrap;strokeColor=none;fillColor=none;align=left;verticalAlign=middle;rounded=0;spacingLeft=0;" parent="9ExzE0s_WKGISwewNnNx-54" vertex="1">
                    <mxGeometry y="100" width="100" height="20" as="geometry"/>
                </mxCell>
                <mxCell id="9ExzE0s_WKGISwewNnNx-57" value="" style="shape=image;verticalLabelPosition=bottom;labelBackgroundColor=default;verticalAlign=top;aspect=fixed;imageAspect=0;editableCssRules=.*;image=data:image/svg+xml,PHN2ZyB4bWxucz0iaHR0cDovL3d3dy53My5vcmcvMjAwMC9zdmciIHZpZXdCb3g9IjIuNjg5MTU2NzcwNzA2MTc2OCAwLjAwMDEyMzE1MzUxMzQxMzg1Mzk0IDE4LjYxOTI1MzE1ODU2OTMzNiAyMy45OTk4OTMxODg0NzY1NjIiIHJvbGU9ImltZyIgd2lkdGg9IjE4LjYxOTI1MzE1ODU2OTMzNiIgaGVpZ2h0PSIyMy45OTk4OTMxODg0NzY1NjIiPjx0aXRsZT5Ib25vPC90aXRsZT48cGF0aCBkPSJNMTIuNDQ1LjAwMmE0NS41MjkgNDUuNTI5IDAgMCAwLTUuMjUyIDguMTQ2IDguNTk1IDguNTk1IDAgMCAxLS41NTUtLjUzIDI3Ljc5NiAyNy43OTYgMCAwIDAtMS4yMDUtMS41NDIgOC43NjIgOC43NjIgMCAwIDAtMS4yNTEgMi4xMiAyMC43NDMgMjAuNzQzIDAgMCAwLTEuNDQ4IDUuODggOC44NjcgOC44NjcgMCAwIDAgLjMzOCAzLjQ2OGMxLjMxMiAzLjQ4IDMuNzk0IDUuNTkzIDcuNDQ1IDYuMzM3IDMuMDU1LjQzOCA1Ljc1NS0uMzMzIDguMDk3LTIuMzEyIDIuNjc3LTIuNTkgMy4zNTktNS42MzQgMi4wNDctOS4xMzJhMzMuMjg3IDMzLjI4NyAwIDAgMC0yLjk4OC01LjU5QTkxLjM0IDkxLjM0IDAgMCAwIDEyLjYxNS4wNTNhLjIxNi4yMTYgMCAwIDAtLjE3LS4wNTFabS0uMzM2IDMuOTA2YTUwLjkzIDUwLjkzIDAgMCAxIDQuNzk0IDYuNTUyYy40NDguNzY3LjgxNyAxLjU3IDEuMTA4IDIuNDEuNjA2IDIuMzg2LS4wNDQgNC4zNTQtMS45NTEgNS45MDQtMS44NDUgMS4yOTgtMy44NyAxLjY4My02LjA3MiAxLjE1Ni0yLjM3Ni0uNzM3LTMuNzUtMi4zMzUtNC4xMjEtNC43OTRhNS4xMDcgNS4xMDcgMCAwIDEgLjI0Mi0yLjI2NmMuMzU4LS45MDguNzktMS43NzQgMS4zLTIuNjAxbDEuNDQ2LTIuMTIxYTM5Ny4zMyAzOTcuMzMgMCAwIDAgMy4yNTQtNC4yNFoiIGZpbGw9IiNFMzYwMDIiLz48L3N2Zz4=;" parent="9ExzE0s_WKGISwewNnNx-54" vertex="1">
                    <mxGeometry x="30.210000000000036" y="40" width="40" height="50" as="geometry"/>
                </mxCell>
                <mxCell id="9ExzE0s_WKGISwewNnNx-58" value="" style="shape=image;verticalLabelPosition=bottom;labelBackgroundColor=default;verticalAlign=top;aspect=fixed;imageAspect=0;image=data:image/svg+xml,PHN2ZyB4bWxucz0iaHR0cDovL3d3dy53My5vcmcvMjAwMC9zdmciIHdpZHRoPSIyNCIgaGVpZ2h0PSIyNCIgdmlld0JveD0iMCAwIDI0IDI0IiBmaWxsPSJub25lIiBzdHJva2U9ImN1cnJlbnRDb2xvciIgc3Ryb2tlLXdpZHRoPSIyIiBzdHJva2UtbGluZWNhcD0icm91bmQiIHN0cm9rZS1saW5lam9pbj0icm91bmQiIGNsYXNzPSJsdWNpZGUgbHVjaWRlLXdheXBvaW50cy1pY29uIGx1Y2lkZS13YXlwb2ludHMiPjxjaXJjbGUgY3g9IjEyIiBjeT0iNC41IiByPSIyLjUiLz48cGF0aCBkPSJtMTAuMiA2LjMtMy45IDMuOSIvPjxjaXJjbGUgY3g9IjQuNSIgY3k9IjEyIiByPSIyLjUiLz48cGF0aCBkPSJNNyAxMmgxMCIvPjxjaXJjbGUgY3g9IjE5LjUiIGN5PSIxMiIgcj0iMi41Ii8+PHBhdGggZD0ibTEzLjggMTcuNyAzLjktMy45Ii8+PGNpcmNsZSBjeD0iMTIiIGN5PSIxOS41IiByPSIyLjUiLz48L3N2Zz4=;" parent="9ExzE0s_WKGISwewNnNx-54" vertex="1">
                    <mxGeometry x="6.210000000000036" y="10" width="24" height="24" as="geometry"/>
                </mxCell>
                <mxCell id="9ExzE0s_WKGISwewNnNx-59" value="" style="endArrow=none;html=1;rounded=0;exitX=0.5;exitY=1;exitDx=0;exitDy=0;entryX=0;entryY=0.5;entryDx=0;entryDy=0;" parent="1" source="9ExzE0s_WKGISwewNnNx-56" target="9ExzE0s_WKGISwewNnNx-43" edge="1">
                    <mxGeometry width="50" height="50" relative="1" as="geometry">
                        <mxPoint x="288" y="450" as="sourcePoint"/>
                        <mxPoint x="338" y="400" as="targetPoint"/>
                        <Array as="points">
                            <mxPoint x="218" y="620"/>
                        </Array>
                    </mxGeometry>
                </mxCell>
                <mxCell id="9ExzE0s_WKGISwewNnNx-60" value="" style="endArrow=none;html=1;rounded=0;exitX=0.5;exitY=1;exitDx=0;exitDy=0;entryX=1;entryY=0.5;entryDx=0;entryDy=0;" parent="1" source="9ExzE0s_WKGISwewNnNx-50" target="9ExzE0s_WKGISwewNnNx-43" edge="1">
                    <mxGeometry width="50" height="50" relative="1" as="geometry">
                        <mxPoint x="488" y="630" as="sourcePoint"/>
                        <mxPoint x="538" y="720" as="targetPoint"/>
                        <Array as="points">
                            <mxPoint x="418" y="620"/>
                        </Array>
                    </mxGeometry>
                </mxCell>
                <mxCell id="9ExzE0s_WKGISwewNnNx-61" value="" style="endArrow=none;html=1;rounded=0;exitX=0.5;exitY=0;exitDx=0;exitDy=0;entryX=0.5;entryY=1;entryDx=0;entryDy=0;" parent="1" source="9ExzE0s_WKGISwewNnNx-55" target="9ExzE0s_WKGISwewNnNx-20" edge="1">
                    <mxGeometry width="50" height="50" relative="1" as="geometry">
                        <mxPoint x="288" y="430" as="sourcePoint"/>
                        <mxPoint x="338" y="380" as="targetPoint"/>
                    </mxGeometry>
                </mxCell>
                <mxCell id="9ExzE0s_WKGISwewNnNx-62" value="" style="endArrow=none;html=1;rounded=0;exitX=0.5;exitY=0;exitDx=0;exitDy=0;entryX=0.5;entryY=1;entryDx=0;entryDy=0;" parent="1" source="9ExzE0s_WKGISwewNnNx-49" target="9ExzE0s_WKGISwewNnNx-36" edge="1">
                    <mxGeometry width="50" height="50" relative="1" as="geometry">
                        <mxPoint x="378" y="460" as="sourcePoint"/>
                        <mxPoint x="378" y="430" as="targetPoint"/>
                    </mxGeometry>
                </mxCell>
                <mxCell id="9ExzE0s_WKGISwewNnNx-63" value="" style="endArrow=none;html=1;rounded=0;entryX=0.5;entryY=0;entryDx=0;entryDy=0;exitX=1;exitY=0.5;exitDx=0;exitDy=0;" parent="1" source="9ExzE0s_WKGISwewNnNx-21" target="9ExzE0s_WKGISwewNnNx-34" edge="1">
                    <mxGeometry width="50" height="50" relative="1" as="geometry">
                        <mxPoint x="288" y="380" as="sourcePoint"/>
                        <mxPoint x="338" y="330" as="targetPoint"/>
                        <Array as="points">
                            <mxPoint x="418" y="160"/>
                        </Array>
                    </mxGeometry>
                </mxCell>
                <mxCell id="9ExzE0s_WKGISwewNnNx-64" value="" style="endArrow=none;html=1;rounded=0;exitX=0.5;exitY=0;exitDx=0;exitDy=0;entryX=0;entryY=0.5;entryDx=0;entryDy=0;" parent="1" source="9ExzE0s_WKGISwewNnNx-16" target="9ExzE0s_WKGISwewNnNx-21" edge="1">
                    <mxGeometry width="50" height="50" relative="1" as="geometry">
                        <mxPoint x="288" y="380" as="sourcePoint"/>
                        <mxPoint x="338" y="330" as="targetPoint"/>
                        <Array as="points">
                            <mxPoint x="218" y="160"/>
                        </Array>
                    </mxGeometry>
                </mxCell>
                <mxCell id="9ExzE0s_WKGISwewNnNx-70" value="/api" style="text;html=1;whiteSpace=wrap;strokeColor=none;fillColor=none;align=center;verticalAlign=middle;rounded=0;" parent="1" vertex="1">
                    <mxGeometry x="418" y="590" width="60" height="30" as="geometry"/>
                </mxCell>
                <mxCell id="9ExzE0s_WKGISwewNnNx-71" value="/api/auth" style="text;html=1;whiteSpace=wrap;strokeColor=none;fillColor=none;align=center;verticalAlign=middle;rounded=0;" parent="1" vertex="1">
                    <mxGeometry x="158" y="590" width="60" height="30" as="geometry"/>
                </mxCell>
                <mxCell id="9ExzE0s_WKGISwewNnNx-72" value="Session to JWT" style="text;html=1;whiteSpace=wrap;strokeColor=none;fillColor=none;align=center;verticalAlign=middle;rounded=0;" parent="1" vertex="1">
                    <mxGeometry x="468" y="450" width="60" height="30" as="geometry"/>
                </mxCell>
                <mxCell id="9ExzE0s_WKGISwewNnNx-73" value="" style="endArrow=none;html=1;rounded=0;exitX=0;exitY=0.5;exitDx=0;exitDy=0;entryX=1;entryY=0.5;entryDx=0;entryDy=0;" parent="1" source="9ExzE0s_WKGISwewNnNx-49" target="9ExzE0s_WKGISwewNnNx-16" edge="1">
                    <mxGeometry width="50" height="50" relative="1" as="geometry">
                        <mxPoint x="318" y="430" as="sourcePoint"/>
                        <mxPoint x="368" y="380" as="targetPoint"/>
                        <Array as="points">
                            <mxPoint x="318" y="460"/>
                            <mxPoint x="318" y="310"/>
                        </Array>
                    </mxGeometry>
                </mxCell>
                <mxCell id="9ExzE0s_WKGISwewNnNx-74" value="Session in cookies" style="text;html=1;whiteSpace=wrap;strokeColor=none;fillColor=none;align=center;verticalAlign=middle;rounded=0;" parent="1" vertex="1">
                    <mxGeometry x="418" y="560" width="60" height="30" as="geometry"/>
                </mxCell>
                <mxCell id="9ExzE0s_WKGISwewNnNx-75" value="JWT" style="text;html=1;whiteSpace=wrap;strokeColor=none;fillColor=none;align=center;verticalAlign=middle;rounded=0;" parent="1" vertex="1">
                    <mxGeometry x="418" y="380" width="60" height="30" as="geometry"/>
                </mxCell>
                <mxCell id="9ExzE0s_WKGISwewNnNx-77" value="Session in cookies" style="text;html=1;whiteSpace=wrap;strokeColor=none;fillColor=none;align=center;verticalAlign=middle;rounded=0;" parent="1" vertex="1">
                    <mxGeometry x="158" y="560" width="60" height="30" as="geometry"/>
                </mxCell>
                <mxCell id="9ExzE0s_WKGISwewNnNx-78" value="" style="group" parent="1" vertex="1" connectable="0">
                    <mxGeometry x="568" y="110" width="100" height="120" as="geometry"/>
                </mxCell>
                <mxCell id="9ExzE0s_WKGISwewNnNx-79" value="" style="rounded=0;whiteSpace=wrap;html=1;fillColor=none;" parent="9ExzE0s_WKGISwewNnNx-78" vertex="1">
                    <mxGeometry width="100" height="100" as="geometry"/>
                </mxCell>
                <mxCell id="9ExzE0s_WKGISwewNnNx-81" value="Azure Key Vault" style="text;html=1;whiteSpace=wrap;strokeColor=none;fillColor=none;align=left;verticalAlign=middle;rounded=0;spacingLeft=0;" parent="9ExzE0s_WKGISwewNnNx-78" vertex="1">
                    <mxGeometry y="100" width="100" height="20" as="geometry"/>
                </mxCell>
                <mxCell id="9ExzE0s_WKGISwewNnNx-82" value="" style="shape=image;verticalLabelPosition=bottom;labelBackgroundColor=default;verticalAlign=top;aspect=fixed;imageAspect=0;image=data:image/svg+xml,PHN2ZyB4bWxucz0iaHR0cDovL3d3dy53My5vcmcvMjAwMC9zdmciIHdpZHRoPSIyNCIgaGVpZ2h0PSIyNCIgdmlld0JveD0iMCAwIDI0IDI0IiBmaWxsPSJub25lIiBzdHJva2U9ImN1cnJlbnRDb2xvciIgc3Ryb2tlLXdpZHRoPSIyIiBzdHJva2UtbGluZWNhcD0icm91bmQiIHN0cm9rZS1saW5lam9pbj0icm91bmQiIGNsYXNzPSJsdWNpZGUgbHVjaWRlLXNlcnZlci1pY29uIGx1Y2lkZS1zZXJ2ZXIiPjxyZWN0IHdpZHRoPSIyMCIgaGVpZ2h0PSI4IiB4PSIyIiB5PSIyIiByeD0iMiIgcnk9IjIiLz48cmVjdCB3aWR0aD0iMjAiIGhlaWdodD0iOCIgeD0iMiIgeT0iMTQiIHJ4PSIyIiByeT0iMiIvPjxsaW5lIHgxPSI2IiB4Mj0iNi4wMSIgeTE9IjYiIHkyPSI2Ii8+PGxpbmUgeDE9IjYiIHgyPSI2LjAxIiB5MT0iMTgiIHkyPSIxOCIvPjwvc3ZnPg==;" parent="9ExzE0s_WKGISwewNnNx-78" vertex="1">
                    <mxGeometry x="10" y="10" width="24" height="24" as="geometry"/>
                </mxCell>
                <mxCell id="9ExzE0s_WKGISwewNnNx-94" value="" style="shape=image;verticalLabelPosition=bottom;labelBackgroundColor=default;verticalAlign=top;aspect=fixed;imageAspect=0;editableCssRules=.*;image=data:image/svg+xml,PHN2ZyB4bWxucz0iaHR0cDovL3d3dy53My5vcmcvMjAwMC9zdmciIHZpZXdCb3g9IjQuMDAzNTE2MTk3MjA0NTkgNi41NDMwMDAyMjEyNTI0NDEgODcuOTkzMjU1NjE1MjM0MzggODIuOTEzMDAyMDE0MTYwMTYiIGhlaWdodD0iMTI5LjU1MTU2NTY0NzEyNTI0IiB3aWR0aD0iMTM3LjQ4OTQ2MTg5ODgwMzciPiYjeGE7ICAgIDxkZWZzPiYjeGE7ICAgICAgICA8bGluZWFyR3JhZGllbnQgZ3JhZGllbnRVbml0cz0idXNlclNwYWNlT25Vc2UiIGdyYWRpZW50VHJhbnNmb3JtPSJtYXRyaXgoMSAwIDAgLTEgMTA3NSAxNTgpIiB5Mj0iNjUuNDI2IiB5MT0iMTQ1LjMxMiIgeDI9Ii0xMDU5LjIxMyIgeDE9Ii0xMDMyLjE3MiIgaWQ9ImUzOTljMTlmLWI2OGYtNDI5ZC1iMTc2LTE4YzIxMTdmZjczYyI+JiN4YTsgICAgICAgICAgICA8c3RvcCBzdG9wLWNvbG9yPSIjMTE0YThiIiBvZmZzZXQ9IjAiLz4mI3hhOyAgICAgICAgICAgIDxzdG9wIHN0b3AtY29sb3I9IiMwNjY5YmMiIG9mZnNldD0iMSIvPiYjeGE7ICAgICAgICA8L2xpbmVhckdyYWRpZW50PiYjeGE7ICAgICAgICA8bGluZWFyR3JhZGllbnQgZ3JhZGllbnRVbml0cz0idXNlclNwYWNlT25Vc2UiIGdyYWRpZW50VHJhbnNmb3JtPSJtYXRyaXgoMSAwIDAgLTEgMTA3NSAxNTgpIiB5Mj0iMTA1Ljk2OCIgeTE9IjEwOC4wODMiIHgyPSItMTAyOS45OCIgeDE9Ii0xMDIzLjcyNSIgaWQ9ImFjMmE2ZmMyLWNhNDgtNDMyNy05YTNjLWQ0ZGNjMzI1NmUxNSI+JiN4YTsgICAgICAgICAgICA8c3RvcCBzdG9wLW9wYWNpdHk9Ii4zIiBvZmZzZXQ9IjAiLz4mI3hhOyAgICAgICAgICAgIDxzdG9wIHN0b3Atb3BhY2l0eT0iLjIiIG9mZnNldD0iLjA3MSIvPiYjeGE7ICAgICAgICAgICAgPHN0b3Agc3RvcC1vcGFjaXR5PSIuMSIgb2Zmc2V0PSIuMzIxIi8+JiN4YTsgICAgICAgICAgICA8c3RvcCBzdG9wLW9wYWNpdHk9Ii4wNSIgb2Zmc2V0PSIuNjIzIi8+JiN4YTsgICAgICAgICAgICA8c3RvcCBzdG9wLW9wYWNpdHk9IjAiIG9mZnNldD0iMSIvPiYjeGE7ICAgICAgICA8L2xpbmVhckdyYWRpZW50PiYjeGE7ICAgICAgICA8bGluZWFyR3JhZGllbnQgZ3JhZGllbnRVbml0cz0idXNlclNwYWNlT25Vc2UiIGdyYWRpZW50VHJhbnNmb3JtPSJtYXRyaXgoMSAwIDAgLTEgMTA3NSAxNTgpIiB5Mj0iNjguNTYxIiB5MT0iMTQ3LjY0MiIgeDI9Ii05OTcuNDgyIiB4MT0iLTEwMjcuMTY1IiBpZD0iYTdmZWU5NzAtYTc4NC00YmIxLWFmOGQtNjNkMThlNWY3ZGI5Ij4mI3hhOyAgICAgICAgICAgIDxzdG9wIHN0b3AtY29sb3I9IiMzY2NiZjQiIG9mZnNldD0iMCIvPiYjeGE7ICAgICAgICAgICAgPHN0b3Agc3RvcC1jb2xvcj0iIzI4OTJkZiIgb2Zmc2V0PSIxIi8+JiN4YTsgICAgICAgIDwvbGluZWFyR3JhZGllbnQ+JiN4YTsgICAgPC9kZWZzPiYjeGE7ICAgIDxwYXRoIGQ9Ik0zMy4zMzggNi41NDRoMjYuMDM4bC0yNy4wMyA4MC4wODdhNC4xNTIgNC4xNTIgMCAwIDEtMy45MzMgMi44MjRIOC4xNDlhNC4xNDUgNC4xNDUgMCAwIDEtMy45MjgtNS40N0wyOS40MDQgOS4zNjhhNC4xNTIgNC4xNTIgMCAwIDEgMy45MzQtMi44MjV6IiBmaWxsPSJ1cmwoI2UzOTljMTlmLWI2OGYtNDI5ZC1iMTc2LTE4YzIxMTdmZjczYykiLz4mI3hhOyAgICA8cGF0aCBkPSJNNzEuMTc1IDYwLjI2MWgtNDEuMjlhMS45MTEgMS45MTEgMCAwIDAtMS4zMDUgMy4zMDlsMjYuNTMyIDI0Ljc2NGE0LjE3MSA0LjE3MSAwIDAgMCAyLjg0NiAxLjEyMWgyMy4zOHoiIGZpbGw9IiMwMDc4ZDQiLz4mI3hhOyAgICA8cGF0aCBkPSJNMzMuMzM4IDYuNTQ0YTQuMTE4IDQuMTE4IDAgMCAwLTMuOTQzIDIuODc5TDQuMjUyIDgzLjkxN2E0LjE0IDQuMTQgMCAwIDAgMy45MDggNS41MzhoMjAuNzg3YTQuNDQzIDQuNDQzIDAgMCAwIDMuNDEtMi45bDUuMDE0LTE0Ljc3NyAxNy45MSAxNi43MDVhNC4yMzcgNC4yMzcgMCAwIDAgMi42NjYuOTcySDgxLjI0TDcxLjAyNCA2MC4yNjFsLTI5Ljc4MS4wMDdMNTkuNDcgNi41NDR6IiBmaWxsPSJ1cmwoI2FjMmE2ZmMyLWNhNDgtNDMyNy05YTNjLWQ0ZGNjMzI1NmUxNSkiLz4mI3hhOyAgICA8cGF0aCBkPSJNNjYuNTk1IDkuMzY0YTQuMTQ1IDQuMTQ1IDAgMCAwLTMuOTI4LTIuODJIMzMuNjQ4YTQuMTQ2IDQuMTQ2IDAgMCAxIDMuOTI4IDIuODJsMjUuMTg0IDc0LjYyYTQuMTQ2IDQuMTQ2IDAgMCAxLTMuOTI4IDUuNDcyaDI5LjAyYTQuMTQ2IDQuMTQ2IDAgMCAwIDMuOTI3LTUuNDcyeiIgZmlsbD0idXJsKCNhN2ZlZTk3MC1hNzg0LTRiYjEtYWY4ZC02M2QxOGU1ZjdkYjkpIi8+JiN4YTs8L3N2Zz4=;" parent="9ExzE0s_WKGISwewNnNx-78" vertex="1">
                    <mxGeometry x="23.649999999999977" y="40" width="52.69" height="50" as="geometry"/>
                </mxCell>
                <mxCell id="9ExzE0s_WKGISwewNnNx-84" value="" style="group" parent="1" vertex="1" connectable="0">
                    <mxGeometry x="568" y="260" width="100" height="120" as="geometry"/>
                </mxCell>
                <mxCell id="9ExzE0s_WKGISwewNnNx-85" value="" style="rounded=0;whiteSpace=wrap;html=1;fillColor=none;" parent="9ExzE0s_WKGISwewNnNx-84" vertex="1">
                    <mxGeometry width="100" height="100" as="geometry"/>
                </mxCell>
                <mxCell id="9ExzE0s_WKGISwewNnNx-87" value="OpenAPI" style="text;html=1;whiteSpace=wrap;strokeColor=none;fillColor=none;align=left;verticalAlign=middle;rounded=0;spacingLeft=0;" parent="9ExzE0s_WKGISwewNnNx-84" vertex="1">
                    <mxGeometry y="100" width="100" height="20" as="geometry"/>
                </mxCell>
                <mxCell id="9ExzE0s_WKGISwewNnNx-89" value="" style="shape=image;verticalLabelPosition=bottom;labelBackgroundColor=default;verticalAlign=top;aspect=fixed;imageAspect=0;image=data:image/svg+xml,PHN2ZyB4bWxucz0iaHR0cDovL3d3dy53My5vcmcvMjAwMC9zdmciIHdpZHRoPSIyNCIgaGVpZ2h0PSIyNCIgdmlld0JveD0iMCAwIDI0IDI0IiBmaWxsPSJub25lIiBzdHJva2U9ImN1cnJlbnRDb2xvciIgc3Ryb2tlLXdpZHRoPSIyIiBzdHJva2UtbGluZWNhcD0icm91bmQiIHN0cm9rZS1saW5lam9pbj0icm91bmQiIGNsYXNzPSJsdWNpZGUgbHVjaWRlLWNvZGUteG1sLWljb24gbHVjaWRlLWNvZGUteG1sIj48cGF0aCBkPSJtMTggMTYgNC00LTQtNCIvPjxwYXRoIGQ9Im02IDgtNCA0IDQgNCIvPjxwYXRoIGQ9Im0xNC41IDQtNSAxNiIvPjwvc3ZnPg==;" parent="9ExzE0s_WKGISwewNnNx-84" vertex="1">
                    <mxGeometry x="10" y="10" width="24" height="24" as="geometry"/>
                </mxCell>
                <mxCell id="9ExzE0s_WKGISwewNnNx-90" value="" style="shape=image;verticalLabelPosition=bottom;labelBackgroundColor=default;verticalAlign=top;aspect=fixed;imageAspect=0;editableCssRules=.*;image=data:image/svg+xml,PHN2ZyB4bWxucz0iaHR0cDovL3d3dy53My5vcmcvMjAwMC9zdmciIHZpZXdCb3g9Ii01LjYzNDUwMTU3NjQyMzY0NWUtOCAwIDIzLjk5NzQ4ODAyMTg1MDU4NiAyNC4wMDAxMTYzNDgyNjY2IiByb2xlPSJpbWciIHdpZHRoPSIyMy45OTc0ODgwMjE4NTA1ODYiIGhlaWdodD0iMjQuMDAwMTE2MzQ4MjY2NiI+PHRpdGxlPk9wZW5BUEkgSW5pdGlhdGl2ZTwvdGl0bGU+PHBhdGggZD0iTTIxLjAzOSAwYTIuOTU5IDIuOTU5IDAgMDAtMi42NSA0LjI3NGwtNi40NDcgNi40NDdhMi45NiAyLjk2IDAgMTAxLjMzNSAxLjMzNmw2LjQ0Ny02LjQ0N0EyLjk1OSAyLjk1OSAwIDEwMjEuMDQgMHpNMTAuNjI4IDIuNzQ1Yy0uMDcyIDAtLjE0My4wMDMtLjIxNC4wMDQtLjA3Mi4wMDItLjE0My4wMDItLjIxNS4wMDUtLjQ0Ny4wMTgtLjg5My4wNjQtMS4zMzUuMTM4bC0uMDMuMDA1LS4xODUuMDMzLS4xMDUuMDJhNy43MTggNy43MTggMCAwMC0uMjg5LjA2MmwtLjAzMi4wMDhhMTAuNjkgMTAuNjkgMCAwMC0yLjU1Ljk1bC0uMTU1LjA4OWMtLjA2My4wMzQtLjEyNS4wNy0uMTg3LjEwNS0uMDQ2LjAyNy0uMDkzLjA1MS0uMTQuMDc5SDUuMTlsLS4wMS4wMDUtLjAzNi4wMnYuMDAybC4xMTEuMTg0IDMuMTUgNS4yM2E0LjE2OCA0LjE2OCAwIDAxLjM4LS4yMDIgNC4yOTQgNC4yOTQgMCAwMTEuNjI4LS40MTNjLjA3MS0uMDA0LjE0My0uMDA4LjIxNC0uMDA4em0uNDI4LjAxdjYuMzMzYy4zMjUuMDM0LjY0Ny4xMDMuOTYuMjA5bDQuNjYtNC42NmMtLjE3My0uMTItLjM0OC0uMjM3LS41MjgtLjM0N2wtLjAyNi0uMDE1Yy0uMDU2LS4wMzUtLjExMi0uMDY3LS4xNjgtLjFsLS4wOTgtLjA1Ni0uMDk5LS4wNTVhMTIuNzM1IDEyLjczNSAwIDAwLS4xNzEtLjA5MmwtLjAyNy0uMDE0YTEwLjYyOCAxMC42MjggMCAwMC0xLjQyNS0uNjE3Yy0uNjktLjI0MS0xLjQwMy0uNDEtMi4xMjgtLjUwNWwtLjA4OS0uMDEyLS4wOS0uMDFhNi41NiA2LjU2IDAgMDAtLjE3LS4wMTlsLS4wNDktLjAwNC0uMjA0LS4wMTdhNi40NCA2LjQ0IDAgMDAtLjI1NS0uMDE1Yy0uMDMxLS4wMDMtLjA2Mi0uMDAzLS4wOTMtLjAwNHpNNC43ODIgNC40OThhOS45MiA5LjkyIDAgMDAtMS4zNiAxLjA2Mmw0LjQ2MSA0LjQ2MS4wMTguMDE4Yy4wNDktLjA0LjA5OC0uMDc4LjE0OS0uMTE2bC0uMDExLS4wMTh6bS0xLjY3IDEuMzZjLS4wNS4wNS0uMDk4LjEwMy0uMTQ3LjE1NGwtLjE0OS4xNTVjLS4zMy4zNTctLjYzLjczLS45MDIgMS4xMThsLS4wMzkuMDU2YTEwLjU4OCAxMC41ODggMCAwMC0uMjE2LjMyNiAxMC42IDEwLjYgMCAwMC0xLjY1IDUuMjc2bC0uMDA2LjIxNS0uMDAzLjIxNGg2LjMxN2MwLS4wNzIuMDA3LS4xNDMuMDEtLjIxNC4wMDUtLjA3Mi4wMDYtLjE0NC4wMTMtLjIxNS4wODEtLjgyMi4zOTktMS42MjUuOTUyLTIuMy4wNDUtLjA1NS4wOTYtLjEwNi4xNDQtLjE2LjA0OC0uMDUyLjA5My0uMTA3LjE0NC0uMTU4em0xNi4yNTUgMS40NjRsLTQuNjYzIDQuNjYzYy4xMDYuMzEyLjE3NS42MzQuMjEuOTU5aDYuMzMybC0uMDA0LS4wOTRhMTEuNTc5IDExLjU3OSAwIDAwLS4wMzItLjQ1NmwtLjAwNS0uMDUyYTEzLjA0NCAxMy4wNDQgMCAwMC0uMDI2LS4yNDF2LS4wMDlsLS4wMzMtLjI0di0uMDA5YTEwLjYxOCAxMC42MTggMCAwMC0uMzI3LTEuNDkzbC0uMDAzLS4wMWExNS44MzkgMTUuODM5IDAgMDAtLjA3LS4yMjhsLS4wMS0uMDNhMTQuMTExIDE0LjExMSAwIDAwLS4wNjktLjIwNGwtLjAyLS4wNTVhNS42NSA1LjY1IDAgMDAtLjE1My0uNDA1IDcuODQgNy44NCAwIDAwLS4wOTMtLjIyNyAxNi42NyAxNi42NyAwIDAwLS4wNjMtLjE0NGwtLjAzNy0uMDgxYTEzLjc3NiAxMy43NzYgMCAwMC0uMDgtLjE3MWwtLjAyNC0uMDUyLS4wOTYtLjE5NC0uMDE0LS4wMjdhMTEuMiAxMS4yIDAgMDAtLjExMi0uMjEybC0uMDA0LS4wMDhhMTAuNjE1IDEwLjYxNSAwIDAwLS42MDQtLjk4em0tNC40MyA2LjA1YzAgLjA3MS0uMDA2LjE0Mi0uMDEuMjE0LS4wMDMuMDcyLS4wMDUuMTQzLS4wMTIuMjE0YTQuMjkgNC4yOSAwIDAxLS45NTIgMi4zMDFjLS4wNDUuMDU1LS4wOTYuMTA3LS4xNDQuMTYtLjA0OC4wNTMtLjA5My4xMDgtLjE0NC4xNTlsNC40NjcgNC40NjdjLjA1MS0uMDUxLjA5OS0uMTA0LjE0OC0uMTU1LjA1LS4wNTIuMS0uMTAzLjE0OC0uMTU1LjMzMS0uMzU4LjYzMy0uNzMzLjkwNS0xLjEyMmwuMDMyLS4wNDYuMDk4LS4xNDQuMDg1LS4xMy4wNC0uMDYzYTEwLjU5NyAxMC41OTcgMCAwMDEuNjQ3LTUuMjcyYy4wMDMtLjA3MS4wMDQtLjE0My4wMDYtLjIxNC4wMDEtLjA3MS4wMDQtLjE0My4wMDQtLjIxNHpNLjAxIDEzLjhsLjAwNC4wOTMuMDEuMTc5LjAwNS4wNzYuMDE3LjIwNi4wMDUuMDQ2Yy4wMDcuMDc2LjAxNS4xNTMuMDI0LjIyOGwuMDAzLjAyMmE5LjYwNSA5LjYwNSAwIDAwLjAzMy4yNDhjLjA3Mi41MDUuMTgyIDEuMDA1LjMyNyAxLjQ5N2wuMDAyLjAwNmMuMDIyLjA3Ny4wNDcuMTU0LjA3MS4yM2wuMDA0LjAxNC4wMDUuMDE0YTE1LjczNyAxNS43MzcgMCAwMC4xNTMuNDM5bC4wMy4wOC4wNTkuMTQ4YTcuNzAyIDcuNzAyIDAgMDAuMDkzLjIyOGwuMDYyLjE0LjAzOC4wODQuMDc4LjE2OS4wMjcuMDU0YTEwLjY3NyAxMC42NzcgMCAwMC4yMjUuNDQxbC4wMjUuMDQzIDUuNDA4LTMuMjU4LjAyLS4wMTJhNC4zMTQgNC4zMTQgMCAwMS0uMzk1LTEuNDE0aC0uMDI1em0uNTA1IDIuODQ2bC0uMjA2LjA1OC4wMDIuMDA1em02LjQyNS0xLjA1MmwtNS40MTUgMy4yNjJjLjA4My4xMzkuMTcuMjczLjI1OS40MDZsLjAwOC4wMTQuMDA0LjAwNS4wMDguMDE0aC4wMDFjLjAwNy4wMTIuMDE0LjAyMi4wMjIuMDMybC4wMDEuMDAydi4wMDFhMTAuNjM0IDEwLjYzNCAwIDAwLjI5OC40MTdsLjAwNi4wMDhhOS45NjMgOS45NjMgMCAwMC4yOS4zNjhsLjAzMy4wNGMuMDQzLjA1Mi4wODYuMTAzLjEzLjE1M2wuMDU3LjA2NS4xMTIuMTI3LjA2NC4wNjkuMDI5LjAzMS4wODMuMDkuMDM1LjAzNWMuMDQ5LjA1MS4wOTguMTAzLjE0OS4xNTNMNy41OCAxNi40MmEzLjg2IDMuODYgMCAwMS0uMjg1LS4zMjEgNC40MjIgNC40MjIgMCAwMS0uMzU2LS41MDV6bTYuNDE2IDEuMTExYy0uMDUuMDQtLjEuMDc5LS4xNS4xMTZsLjAxMS4wMTggMy4yNTcgNS40MDdjLjE1MS0uMDk5LjMtLjIuNDQ2LS4zMDcuMzE1LS4yMzIuNjItLjQ4NC45MTQtLjc1NmwtNC40Ni00LjQ2em0tNS40NTcuMDAzbC0uMDE1LjAxNS00LjQ2IDQuNDZhOC45NjYgOC45NjYgMCAwMC4xOTUuMTc2Yy4wMjIuMDIuMDQzLjA0LjA2NS4wNThsLjE1Mi4xM2ExMC42MjIgMTAuNjIyIDAgMDAuMjE1LjE3NGwuMDIzLjAxNy4xOTEuMTQ4LjAwOC4wMDVjLjI2OC4yLjU0Ny4zODkuODM0LjU2NGwuMDMuMDE4LjE2NC4wOTcuMTAxLjA1N2E1LjQ1OCA1LjQ1OCAwIDAwLjI3LjE0OGMuMDA4LjAwNC4wMTYuMDEuMDI1LjAxMy4xNjIuMDg1LjMyNy4xNjQuNDkzLjI0bC4xNTgtLjM4NSAyLjI0My01LjQ0OC4wMDktLjAyYTQuMzI4IDQuMzI4IDAgMDEtLjcwMS0uNDY3em00Ljk1MS4zNTNjLS4wNjEuMDM3LS4xMjQuMDctLjE4Ny4xMDRhNC4zMTggNC4zMTggMCAwMS0zLjI3MS4zMzZjLS4wNjktLjAyLS4xMzUtLjA0Ny0uMjAzLS4wNzEtLjA2Ny0uMDI0LS4xMzYtLjA0NC0uMjAyLS4wNzJsLTIuMjQyIDUuNDQ0LS4wODguMjEzLS4wNzUuMTgzdi4wMDFsLjAxNy4wMDdhLjEzNy4xMzcgMCAwMC4wMTkuMDA3bC4wMDUuMDAzYy4wNTIuMDIxLjEwNi4wNC4xNTkuMDYuMDY3LjAyNy4xMzMuMDUzLjIuMDc3bC4xMDIuMDRjLjcwMi4yNDcgMS40My40MiAyLjE2OC41MThsLjA4Ny4wMTIuMDkuMDEuMTcyLjAxOWE3LjE3MyA3LjE3MyAwIDAwLjI1Mi4wMjJjLjAyMy4wMDEuMDQ4LjAwMS4wNzEuMDAzbC4xODQuMDExLjExMi4wMDVhNy4wNiA3LjA2IDAgMDAuMzU4LjAwN2guMDVhMTAuNjY3IDEwLjY2NyAwIDAwMS43OTMtLjE1bC4xODUtLjAzNC4xMDUtLjAyLjEwOS0uMDIzLjE4LS4wNC4wMzItLjAwOGExMC42ODQgMTAuNjg0IDAgMDAyLjU1LS45NWMuMDUyLS4wMjguMTA0LS4wNi4xNTYtLjA4OS4wNjMtLjAzNC4xMjUtLjA3LjE4Ny0uMTA1LjA0My0uMDI0LjA4Ny0uMDQ3LjEzLS4wNzNoLjAwMWwuMDAyLS4wMDIuMDAyLS4wMDEuMDAyLS4wMDEuMDA3LS4wMDQuMDQyLS4wMjUtLjExLS4xODMtLjExLS4xODR6bTMuMjYyIDUuNDE0bC0uMDQyLjAyNS4wNDItLjAyNHptLS4wNS4wMjl6bS0uMDA1LjAwNGgtLjAwMnoiIGZpbGw9IiM2QkE1MzkiLz48L3N2Zz4=;" parent="9ExzE0s_WKGISwewNnNx-84" vertex="1">
                    <mxGeometry x="25" y="40" width="50" height="50" as="geometry"/>
                </mxCell>
                <mxCell id="9ExzE0s_WKGISwewNnNx-92" value="" style="endArrow=none;html=1;rounded=0;entryX=0;entryY=0.5;entryDx=0;entryDy=0;exitX=1;exitY=0.5;exitDx=0;exitDy=0;" parent="1" source="9ExzE0s_WKGISwewNnNx-34" target="9ExzE0s_WKGISwewNnNx-85" edge="1">
                    <mxGeometry width="50" height="50" relative="1" as="geometry">
                        <mxPoint x="368" y="430" as="sourcePoint"/>
                        <mxPoint x="418" y="380" as="targetPoint"/>
                    </mxGeometry>
                </mxCell>
                <mxCell id="9ExzE0s_WKGISwewNnNx-93" value="" style="endArrow=none;html=1;rounded=0;entryX=1;entryY=0.5;entryDx=0;entryDy=0;exitX=0;exitY=0.5;exitDx=0;exitDy=0;" parent="1" source="9ExzE0s_WKGISwewNnNx-79" target="9ExzE0s_WKGISwewNnNx-34" edge="1">
                    <mxGeometry width="50" height="50" relative="1" as="geometry">
                        <mxPoint x="288" y="390" as="sourcePoint"/>
                        <mxPoint x="338" y="340" as="targetPoint"/>
                        <Array as="points">
                            <mxPoint x="518" y="160"/>
                            <mxPoint x="518" y="310"/>
                        </Array>
                    </mxGeometry>
                </mxCell>
            </root>
        </mxGraphModel>
    </diagram>
</mxfile>
